<svg width="158" height="34" viewBox="0 0 158 34" fill="none" xmlns="http://www.w3.org/2000/svg">
<g clip-path="url(#clip0_1_363)">
<path d="M8.86244 6.44667C8.91303 6.47846 8.95425 6.52336 8.98182 6.57671C9.00937 6.63007 9.02225 6.6899 9.01911 6.74999V28.6219C9.01911 31.2441 9.6284 32.3782 11.3366 32.6332C11.4254 32.6332 11.5107 32.6688 11.5735 32.7323C11.6364 32.7959 11.6717 32.882 11.6717 32.9717C11.6717 33.0614 11.6364 33.1475 11.5735 33.211C11.5107 33.2746 11.4254 33.3102 11.3366 33.3102H0.541312C0.306301 33.3102 0.171387 33.2113 0.171387 32.9739C0.171387 32.7365 0.286717 32.6706 0.541312 32.6288C2.39964 32.3892 2.8305 31.2639 2.8305 28.6219V14.7264C2.8305 11.946 2.26473 10.4689 0.654465 10.1568C0.471679 10.1239 0.27366 10.0755 0.27366 9.81395C0.274393 9.7667 0.284732 9.72008 0.304038 9.67702C0.323344 9.63396 0.351206 9.59534 0.385891 9.56363C0.420575 9.53189 0.461347 9.50767 0.505675 9.49252C0.550003 9.47736 0.596944 9.47155 0.643585 9.47547C4.95212 9.33919 8.12041 6.76098 8.45117 6.48184C8.50618 6.4308 8.57642 6.39966 8.65084 6.39331C8.72528 6.38693 8.7997 6.4057 8.86244 6.44667Z" fill="black"/>
<path d="M21.8558 16.3V28.6218C21.8558 31.2418 22.4651 32.3781 24.1711 32.6331C24.2599 32.6331 24.3452 32.6687 24.4081 32.7322C24.471 32.7957 24.5062 32.8819 24.5062 32.9716C24.5062 33.0612 24.471 33.1474 24.4081 33.2109C24.3452 33.2744 24.2599 33.31 24.1711 33.31H13.3758C13.1408 33.31 13.0059 33.2111 13.0059 32.9738C13.0059 32.7364 13.1212 32.6704 13.3758 32.6287C15.2363 32.3891 15.6671 31.2637 15.6671 28.6218V24.2808C15.6671 21.5004 15.0992 20.0234 13.4911 19.7113C13.3083 19.6783 13.1125 19.6299 13.1125 19.3684C13.1129 19.3212 13.123 19.2747 13.1421 19.2316C13.1611 19.1885 13.1888 19.1499 13.2233 19.1181C13.2578 19.0864 13.2984 19.0621 13.3427 19.047C13.3869 19.0318 13.4337 19.026 13.4802 19.0299C17.7888 18.8936 20.9571 16.3154 21.2878 16.0363C21.3359 15.9874 21.3977 15.9547 21.4647 15.9425C21.5318 15.9302 21.601 15.9391 21.663 15.9679C21.7249 15.9966 21.7766 16.0439 21.8111 16.1033C21.8456 16.1627 21.8613 16.2314 21.8558 16.3ZM21.8558 10.0424C21.8558 11.0095 21.4754 11.937 20.7984 12.6208C20.1214 13.3047 19.2032 13.6888 18.2457 13.6888C16.7225 13.6888 14.6357 12.3371 14.6357 10.0424C14.6354 9.56348 14.7286 9.08918 14.9099 8.64667C15.0913 8.20413 15.3571 7.80203 15.6924 7.46337C16.0277 7.12471 16.4258 6.85614 16.8639 6.67298C17.302 6.48983 17.7716 6.39571 18.2457 6.396C19.8952 6.396 21.8558 7.74994 21.8558 10.0424Z" fill="black"/>
<path d="M33.3537 15.9463C33.5887 15.9463 33.852 15.9924 33.852 16.2825C33.852 16.5243 33.6823 16.5859 33.456 16.6254C31.8675 17.1178 32.603 19.085 33.1883 20.6037L36.3414 27.5229L39.0919 20.2477C39.5837 18.9487 40.2626 16.6232 38.3695 16.6232C38.2805 16.6232 38.1954 16.5876 38.1325 16.5241C38.0696 16.4606 38.0343 16.3745 38.0343 16.2847C38.0343 16.195 38.0696 16.1089 38.1325 16.0454C38.1954 15.9819 38.2805 15.9463 38.3695 15.9463H43.8726C44.1098 15.9463 44.2425 16.043 44.2425 16.2825C44.2425 16.5221 44.1294 16.5859 43.8726 16.6254C41.9142 16.6628 40.7914 17.6475 39.6555 20.6697L34.8682 33.3102H31.9023L26.3622 20.5906C25.853 19.5509 24.5539 16.6232 23.5486 16.6232C23.3679 16.6056 23.1699 16.5441 23.1699 16.2825C23.173 16.2348 23.1854 16.1881 23.2065 16.1452C23.2274 16.1023 23.2567 16.0641 23.2927 16.0328C23.3286 16.0015 23.3701 15.9778 23.4152 15.9629C23.4602 15.948 23.5079 15.9424 23.5551 15.9463H33.3537Z" fill="black"/>
<path d="M57.242 18.6828C58.7957 20.6917 58.6173 24.1007 55.0072 24.5183C52.853 24.7711 50.6987 25.0349 48.5444 25.292C49.7848 31.2024 56.3085 32.064 58.4867 28.2329C58.6194 27.9911 58.8131 27.501 59.1526 27.6636C59.2185 27.6986 59.2707 27.7555 59.3001 27.8247C59.3293 27.8942 59.334 27.9716 59.3136 28.0439C58.2256 32.176 54.8636 33.5937 51.0186 33.5937C47.2736 33.5937 43.557 31.3584 42.3885 27.3999C42.2185 26.8337 42.1032 26.2521 42.0446 25.6635C41.5986 20.4895 44.0401 15.9397 50.9163 15.9397C53.199 15.9463 55.7993 16.8277 57.242 18.6828ZM48.4182 24.6392C51.3472 24.2832 53.7495 23.2325 53.4601 20.3576C53.2425 18.1025 52.6789 16.6211 50.8815 16.6211C48.4269 16.6189 47.6153 21.6148 48.4182 24.6392Z" fill="black"/>
<path d="M93.8318 22.1379L94.4846 27.9383C94.9394 30.833 95.8642 31.6265 96.6063 31.7672C96.8424 31.7764 97.0787 31.7683 97.3135 31.743C97.3866 31.7447 97.4571 31.7709 97.5141 31.8173C97.5711 31.8637 97.6114 31.9276 97.6288 31.9995C97.6462 32.0714 97.6395 32.147 97.6101 32.2145C97.5807 32.2822 97.53 32.3382 97.4658 32.3738C96.2255 33.1013 95.1005 33.4728 93.2378 33.4904C91.4643 33.4904 89.6495 32.9475 88.8117 31.2375C88.8117 31.2704 87.0579 33.4596 83.2063 33.4596C80.1816 33.4596 77.1548 32.3123 77.1548 28.9802C77.1548 23.2984 83.5066 24.5425 86.2506 23.2786C87.393 22.7533 87.6062 22.0126 87.4365 20.7136C87.2385 19.2146 86.4638 16.4935 84.2095 16.4935C82.7994 16.4935 82.3054 17.3112 82.2924 18.109C82.2706 19.4278 84.2856 19.441 83.9592 21.3334C83.5697 23.5776 79.5767 23.9336 78.8738 21.2345C78.1797 18.6299 80.1207 16.0451 84.7208 15.8253C89.7431 15.566 93.0681 17.3397 93.8318 22.1379ZM86.5378 23.9996C85.1256 24.8788 83.0018 25.7052 83.0018 28.3537C83.0018 32.8332 88.8139 32.765 88.4418 29.6395L87.6933 22.9797C87.3934 23.4072 86.9974 23.7567 86.5378 23.9996Z" fill="black"/>
<path d="M74.0173 25.0743H63.5462C63.4226 25.0743 63.3043 25.0248 63.217 24.9365C63.1295 24.8483 63.0806 24.7288 63.0806 24.6039C63.0806 24.4791 63.1295 24.3595 63.217 24.2714C63.3043 24.183 63.4226 24.1335 63.5462 24.1335H74.0173C74.1407 24.1335 74.2592 24.183 74.3465 24.2714C74.4338 24.3595 74.4829 24.4791 74.4829 24.6039C74.4829 24.7288 74.4338 24.8483 74.3465 24.9365C74.2592 25.0248 74.1407 25.0743 74.0173 25.0743Z" fill="#ED4624"/>
<path d="M87.4105 11.5195C87.3491 11.5195 87.2884 11.5073 87.2319 11.4835C87.1751 11.4597 87.1237 11.4249 87.0804 11.381C87.0371 11.3371 87.0029 11.285 86.9797 11.2276C86.9564 11.1703 86.9444 11.1089 86.9448 11.047V0.470364C86.9448 0.345616 86.9938 0.225975 87.0813 0.137765C87.1685 0.0495548 87.2869 0 87.4105 0C87.5339 0 87.6525 0.0495548 87.7397 0.137765C87.827 0.225975 87.8762 0.345616 87.8762 0.470364V11.047C87.8764 11.1089 87.8646 11.1703 87.8414 11.2276C87.8181 11.285 87.7837 11.3371 87.7406 11.381C87.6973 11.4249 87.6457 11.4597 87.5892 11.4835C87.5326 11.5073 87.4719 11.5195 87.4105 11.5195Z" fill="#ED4624"/>
<path d="M83.9268 12.1152C83.8241 12.1149 83.7244 12.0806 83.643 12.0174C83.5617 11.9542 83.5031 11.8658 83.4764 11.7657L81.7355 5.15645C81.7168 5.09596 81.7105 5.03231 81.7166 4.96927C81.7229 4.90624 81.7418 4.84511 81.7721 4.78961C81.8021 4.73409 81.8432 4.68532 81.8926 4.64622C81.9418 4.60709 81.9986 4.57847 82.0591 4.56201C82.1198 4.54557 82.1829 4.54166 82.2452 4.55052C82.3072 4.55935 82.3668 4.5808 82.4205 4.61353C82.4743 4.64626 82.5209 4.6896 82.5576 4.74097C82.5944 4.79236 82.6203 4.85067 82.6342 4.91248L84.3881 11.5218C84.4042 11.5815 84.4086 11.6439 84.4007 11.7053C84.3929 11.7667 84.3733 11.826 84.3426 11.8797C84.3122 11.9334 84.2715 11.9805 84.2227 12.0183C84.1742 12.0561 84.1187 12.0838 84.0595 12.0998C84.0162 12.1112 83.9716 12.1164 83.9268 12.1152Z" fill="#4D55A5"/>
<path d="M80.8108 13.5285C80.7289 13.5288 80.6487 13.5072 80.5779 13.4659C80.5072 13.4246 80.4487 13.365 80.4082 13.2933L78.9111 10.6733C78.8767 10.6198 78.8534 10.5598 78.8428 10.4969C78.8319 10.434 78.8341 10.3696 78.8489 10.3075C78.8634 10.2455 78.8906 10.1871 78.9283 10.1359C78.9661 10.0848 79.0138 10.0419 79.0684 10.01C79.1233 9.97803 79.1838 9.95765 79.2464 9.95009C79.3091 9.94253 79.3729 9.94794 79.4333 9.96598C79.4941 9.98405 79.5502 10.0144 79.5989 10.0551C79.6475 10.0958 79.6875 10.1461 79.7162 10.203L81.2264 12.8229C81.2571 12.8764 81.2771 12.9355 81.2849 12.9968C81.293 13.0581 81.2888 13.1203 81.2727 13.18C81.2569 13.2397 81.2292 13.2956 81.1918 13.3444C81.1544 13.3933 81.1076 13.4342 81.0545 13.4647C80.9809 13.5092 80.8963 13.5313 80.8108 13.5285Z" fill="#FFE04A"/>
<path d="M78.0191 15.5879C77.9575 15.588 77.8968 15.5758 77.84 15.552C77.7832 15.5283 77.7316 15.4934 77.6883 15.4494L72.9011 10.6139C72.8325 10.5233 72.7988 10.4107 72.8062 10.2969C72.8136 10.1832 72.8617 10.0761 72.9415 9.99543C73.0214 9.91481 73.1274 9.86623 73.2401 9.8587C73.3528 9.85116 73.4642 9.8852 73.5539 9.95448L78.3411 14.79C78.4055 14.8561 78.4495 14.9399 78.4671 15.0309C78.485 15.122 78.4756 15.2163 78.4406 15.3021C78.4055 15.388 78.3461 15.4614 78.2702 15.5134C78.194 15.5654 78.1044 15.5936 78.0125 15.5945L78.0191 15.5879Z" fill="#69BD45"/>
<path d="M75.8364 18.3244C75.7546 18.3252 75.6738 18.3032 75.6036 18.2607L66.5339 12.968C66.4268 12.9056 66.3487 12.8029 66.3167 12.6823C66.2847 12.5617 66.3013 12.4332 66.3631 12.3251C66.4249 12.217 66.5267 12.1381 66.6459 12.1057C66.7654 12.0733 66.8925 12.0902 66.9996 12.1526L76.0692 17.4431C76.1758 17.5056 76.2538 17.6082 76.2855 17.7285C76.3173 17.8488 76.3005 17.977 76.239 18.0849C76.1991 18.1574 76.1408 18.2178 76.0699 18.26C75.9992 18.3021 75.9186 18.3243 75.8364 18.3244Z" fill="#FFE04A"/>
<path d="M74.5785 21.6016C74.538 21.6019 74.4977 21.5967 74.4588 21.5862L67.8502 19.797C67.7891 19.7831 67.7314 19.7568 67.6805 19.7197C67.6296 19.6826 67.5867 19.6355 67.5543 19.5813C67.5218 19.527 67.5007 19.4667 67.4918 19.404C67.4831 19.3413 67.487 19.2774 67.5034 19.2162C67.5195 19.155 67.548 19.0978 67.5867 19.0479C67.6254 18.9981 67.6737 18.9567 67.7286 18.9261C67.7836 18.8956 67.8441 18.8766 67.9063 18.8703C67.9688 18.8639 68.0319 18.8704 68.0917 18.8893L74.6982 20.6762C74.8078 20.7053 74.9031 20.7737 74.9665 20.8687C75.0298 20.9636 75.0566 21.0786 75.0418 21.1921C75.0272 21.3056 74.9719 21.4098 74.8866 21.4852C74.8013 21.5606 74.6919 21.6019 74.5785 21.6016Z" fill="#4D55A5"/>
<path d="M100.243 21.6719C100.129 21.6723 100.02 21.6309 99.9345 21.5556C99.8492 21.4802 99.7939 21.376 99.7794 21.2625C99.7646 21.149 99.7913 21.034 99.8547 20.939C99.918 20.844 100.013 20.7756 100.123 20.7466L106.695 18.9662C106.814 18.9342 106.941 18.9514 107.048 19.014C107.155 19.0767 107.233 19.1797 107.265 19.3003C107.296 19.421 107.279 19.5495 107.217 19.6574C107.155 19.7654 107.053 19.8441 106.934 19.8762L100.362 21.6543C100.323 21.6655 100.283 21.6715 100.243 21.6719Z" fill="#4D55A5"/>
<path d="M98.9871 18.3245C98.884 18.3255 98.7832 18.2919 98.7012 18.229C98.6189 18.1661 98.5597 18.0773 98.5328 17.9767C98.5058 17.8761 98.5127 17.7693 98.5526 17.6731C98.5922 17.5769 98.6624 17.4968 98.7521 17.4453L107.822 12.1548C107.875 12.1239 107.933 12.1038 107.994 12.0958C108.055 12.0878 108.116 12.0919 108.175 12.1079C108.235 12.1239 108.29 12.1515 108.338 12.1892C108.387 12.2268 108.428 12.2738 108.458 12.3273C108.489 12.3809 108.509 12.44 108.517 12.5012C108.525 12.5625 108.52 12.6248 108.505 12.6845C108.489 12.7442 108.462 12.8002 108.424 12.8492C108.387 12.8982 108.34 12.9393 108.287 12.9702L99.2199 18.2585C99.1497 18.3012 99.0691 18.324 98.9871 18.3245Z" fill="#FFE04A"/>
<path d="M96.8045 15.5659C96.7124 15.5655 96.6225 15.5376 96.5462 15.4858C96.4696 15.434 96.4099 15.3605 96.3747 15.2746C96.3394 15.1888 96.3299 15.0942 96.3475 15.003C96.3651 14.9117 96.4091 14.8277 96.4737 14.7615L101.261 9.92597C101.301 9.87276 101.352 9.82887 101.411 9.79722C101.469 9.76557 101.534 9.74691 101.6 9.74249C101.666 9.73805 101.733 9.74796 101.795 9.77155C101.857 9.79513 101.913 9.83184 101.96 9.87922C102.007 9.92661 102.043 9.98356 102.067 10.0463C102.09 10.109 102.1 10.176 102.095 10.2429C102.091 10.3098 102.073 10.3749 102.041 10.434C102.01 10.493 101.966 10.5446 101.914 10.5854L97.1265 15.4209C97.0421 15.51 96.9265 15.5621 96.8045 15.5659Z" fill="#69BD45"/>
<path d="M94.0646 13.4714C93.983 13.4713 93.9027 13.4495 93.832 13.4081C93.7613 13.3668 93.7027 13.3074 93.6618 13.2359C93.6211 13.1644 93.5996 13.0834 93.5996 13.0009C93.5996 12.9184 93.6211 12.8373 93.6621 12.7659L95.1309 10.1986C95.1616 10.1451 95.2022 10.0982 95.2508 10.0605C95.2993 10.0229 95.3546 9.99525 95.4138 9.97923C95.473 9.9632 95.5345 9.95909 95.5952 9.96714C95.6557 9.97518 95.7143 9.99523 95.7674 10.0261C95.8205 10.057 95.8668 10.0981 95.904 10.1471C95.9414 10.1962 95.9686 10.2521 95.9845 10.3118C96.0004 10.3715 96.0045 10.4338 95.9965 10.4951C95.9887 10.5564 95.9686 10.6155 95.9382 10.669L94.4694 13.2362C94.4285 13.308 94.3693 13.3675 94.2983 13.4088C94.2272 13.4501 94.1467 13.4717 94.0646 13.4714Z" fill="#FFE04A"/>
<path d="M90.8813 12.0889C90.8408 12.0884 90.8006 12.0825 90.7616 12.0713C90.7024 12.0555 90.6469 12.028 90.5982 11.9905C90.5494 11.953 90.5088 11.9061 90.4779 11.8527C90.4472 11.7992 90.4274 11.7401 90.4191 11.6788C90.4111 11.6175 90.415 11.5552 90.4308 11.4954L92.1717 4.90155C92.2037 4.78088 92.2818 4.67802 92.3891 4.61557C92.4961 4.55313 92.6234 4.5362 92.7429 4.56856C92.8623 4.60091 92.9642 4.67988 93.026 4.78809C93.0878 4.89627 93.1045 5.02485 93.0725 5.14552L91.3317 11.7394C91.3052 11.8397 91.2469 11.9283 91.1653 11.9916C91.0839 12.0548 90.984 12.089 90.8813 12.0889Z" fill="#4D55A5"/>
<path d="M111.255 25.0743H100.776C100.652 25.0743 100.534 25.0248 100.446 24.9365C100.359 24.8483 100.31 24.7288 100.31 24.6039C100.31 24.4791 100.359 24.3595 100.446 24.2714C100.534 24.183 100.652 24.1335 100.776 24.1335H111.255C111.379 24.1335 111.497 24.183 111.585 24.2714C111.672 24.3595 111.721 24.4791 111.721 24.6039C111.721 24.7288 111.672 24.8483 111.585 24.9365C111.497 25.0248 111.379 25.0743 111.255 25.0743Z" fill="#ED4624"/>
<path d="M121.604 6.50593C121.656 6.53554 121.697 6.57963 121.724 6.63273C121.75 6.68584 121.761 6.74566 121.755 6.80485V17.599C127.158 13.513 134.043 17.8936 134.201 24.371C134.321 29.2329 131.209 33.409 126.842 33.6771C124.575 33.8178 122.442 32.8441 120.895 31.1781L116.043 33.3343C115.825 33.4156 115.573 33.3343 115.573 33.0243V14.7813C115.573 11.9789 114.996 10.4996 113.362 10.2051C113.318 10.2057 113.274 10.1974 113.233 10.1808C113.192 10.1641 113.155 10.1394 113.123 10.1082C113.092 10.0769 113.067 10.0396 113.05 9.99852C113.033 9.95744 113.024 9.91335 113.024 9.86882C113.027 9.77958 113.063 9.69469 113.126 9.63198C113.189 9.56928 113.273 9.53363 113.362 9.53253C117.685 9.40065 120.869 6.81584 121.195 6.5389C121.25 6.48837 121.32 6.45773 121.394 6.45175C121.468 6.4458 121.542 6.46485 121.604 6.50593ZM122.307 18.2431C121.452 19.6036 121.655 22.617 122.545 25.9733C123.713 30.2791 125.571 33.4288 127.358 32.943C129.144 32.4573 129.02 28.3273 127.978 24.4787C126.912 20.452 125.236 17.4144 123.587 17.4452C123.03 17.4496 122.645 17.7002 122.307 18.2431Z" fill="black"/>
<path d="M143.051 16.3549V28.6767C143.051 31.2989 143.661 32.4352 145.367 32.688C145.455 32.688 145.541 32.7236 145.604 32.7871C145.666 32.8507 145.702 32.9368 145.702 33.0265C145.702 33.1162 145.666 33.2023 145.604 33.2659C145.541 33.3294 145.455 33.365 145.367 33.365H134.571C134.336 33.365 134.204 33.2683 134.204 33.0287C134.204 32.8221 134.317 32.7254 134.571 32.6858C136.432 32.444 136.863 31.3187 136.863 28.6767V24.3358C136.863 21.5553 136.297 20.0805 134.687 19.7684C134.506 19.7332 134.308 19.6871 134.308 19.4233C134.309 19.376 134.319 19.3294 134.339 19.2863C134.358 19.2433 134.386 19.2047 134.42 19.173C134.455 19.1412 134.496 19.117 134.54 19.1019C134.584 19.0867 134.631 19.0809 134.678 19.0848C138.984 18.9485 142.153 16.3703 142.483 16.0934C142.531 16.0447 142.593 16.0121 142.66 15.9998C142.727 15.9876 142.796 15.9962 142.857 16.0247C142.919 16.0532 142.971 16.1001 143.006 16.1591C143.04 16.2181 143.056 16.2865 143.051 16.3549ZM143.051 10.0973C143.051 11.0644 142.671 11.9919 141.994 12.6758C141.317 13.3596 140.399 13.7438 139.441 13.7438C137.918 13.7438 135.831 12.3942 135.831 10.0973C135.831 9.13024 136.212 8.20277 136.889 7.51894C137.566 6.83509 138.484 6.45093 139.441 6.45093C141.091 6.45093 143.051 7.80707 143.051 10.0973Z" fill="black"/>
<path d="M152.872 9.72369C152.946 9.74279 153.01 9.7882 153.054 9.85157C153.097 9.91496 153.117 9.99206 153.109 10.0688V16.9506H156.186C156.274 16.9506 156.359 16.986 156.421 17.0491C156.484 17.1121 156.519 17.1977 156.519 17.2869C156.519 17.3761 156.484 17.4616 156.421 17.5247C156.359 17.5877 156.274 17.6232 156.186 17.6232H153.109V27.3579C153.109 29.8812 153.747 30.8329 154.547 30.8197C155.348 30.8065 156.088 29.9405 156.397 29.1866C156.414 29.1444 156.439 29.106 156.471 29.0737C156.502 29.0414 156.54 29.0161 156.582 28.9992C156.624 28.9822 156.669 28.9741 156.714 28.975C156.759 28.9761 156.803 28.9864 156.844 29.0053C156.885 29.0244 156.922 29.0515 156.953 29.0851C156.983 29.119 157.006 29.1585 157.021 29.2016C157.036 29.2447 157.042 29.2902 157.038 29.3357C157.035 29.3809 157.023 29.4253 157.002 29.4658C156.047 31.5714 154.056 33.6419 151.527 33.6419C148.535 33.6419 146.92 31.9737 146.92 27.3557V20.4541C146.938 17.5396 146.855 17.5616 144.744 17.5616C144.562 17.5287 144.366 17.4803 144.366 17.2187C144.366 17.0143 144.525 16.9242 144.736 16.8803C146.99 16.4077 151.581 12.9459 152.5 9.95008C152.526 9.87436 152.577 9.81025 152.645 9.7689C152.713 9.72754 152.793 9.71154 152.872 9.72369Z" fill="black"/>
</g>
<defs>
<clipPath id="clip0_1_363">
<rect width="157.109" height="33.8486" fill="white" transform="translate(0.0605469)"/>
</clipPath>
</defs>
</svg>
