<svg width="1895" height="1854" viewBox="0 0 1895 1854" fill="none" xmlns="http://www.w3.org/2000/svg">
<g opacity="0.12">
<path fill-rule="evenodd" clip-rule="evenodd" d="M694.837 670.261C694.729 645.844 651.655 618.385 633.255 604.229C596.874 576.229 559.036 550.373 521.549 524.104C484.061 497.835 446.473 471.637 410.726 442.797C387.516 424.076 360.244 402.991 344.502 376.259C310.969 319.291 416.697 327.751 444.084 326.504C513.756 323.321 593.669 324.774 658.975 295.108C697.96 277.398 713.506 247.697 705.133 204.409C702.434 190.33 694.445 174.13 701.213 160.415C708.439 145.767 725.064 137.315 738.862 131.647C789.189 110.996 847.053 108.603 900.302 106.011C957.72 103.163 1015.68 103.996 1072.69 103.775C1096.87 103.683 1122.12 94.518 1145.14 87.0695C1175.32 77.3067 1205.14 66.3404 1235.07 55.7373C1300.92 32.4661 1368.77 7.95574 1438.43 2.04534C1482.06 -1.65755 1529.74 3.34849 1563.63 35.5566C1580.65 51.7282 1589.55 75.7686 1599.39 97.1243C1611.3 122.924 1622.74 148.972 1635.41 174.365C1676.26 256.149 1734.56 336.068 1829.21 340.084C1843.52 340.689 1857.59 338.717 1871.84 338.347C1880.91 338.119 1888.99 340.433 1892.36 350.452C1900.84 375.582 1874.18 415.253 1863.25 435.192C1839.32 478.836 1812.33 520.522 1787.05 563.29C1770.32 591.575 1741.37 630.227 1741.07 664.593C1740.8 695.213 1779.39 717.345 1800.4 732.427C1820.09 746.548 1855.76 766.309 1857.92 795.035C1858.97 808.963 1850.27 820.506 1841.18 829.465C1825.25 845.131 1806.89 856.182 1792.56 874.056C1769.06 903.38 1749.43 943.727 1752.62 983.241C1754.83 1010.62 1769.64 1028.55 1788.47 1045.69C1796.38 1052.9 1802.81 1058 1803.22 1069.7C1803.9 1088.28 1797 1107.94 1791.32 1125.16C1771 1186.81 1742.13 1246.42 1710.03 1302.08C1693.98 1329.89 1676.65 1357.62 1655.37 1381.35C1641.44 1396.93 1622.65 1415.47 1601.4 1415.45C1576.79 1415.45 1550.75 1406.08 1526.83 1399.07C1482.16 1385.97 1438.03 1370.83 1394.07 1355.3C1292.41 1319.37 1191.71 1280.53 1091.96 1238.78C1021.7 1209.32 949.954 1179.82 883.9 1140.65C871.017 1132.96 858.858 1123.99 847.586 1113.87C835.542 1103.24 820.597 1098.48 805.443 1094.93C711.387 1072.92 608.344 1089.82 513.897 1100.42C489.924 1103.1 465.952 1105.8 441.911 1107.68C421.245 1109.3 396.503 1113.93 376.417 1106.97C336.838 1093.26 371.437 1042.74 386.065 1022.15C437.566 949.666 504.013 888.341 565.601 825.733C594.884 795.918 624.389 766.181 652.08 734.677C666.498 718.299 694.931 691.667 694.837 670.261Z" stroke="white"/>
<path fill-rule="evenodd" clip-rule="evenodd" d="M712.584 666.145C696.799 640.307 669.103 621.21 646.113 603.238C613.029 577.364 578.905 552.929 545.295 527.789C513.514 504.015 481.666 479.971 452.235 452.974C434.288 436.51 411.771 416.822 403.271 392.472C384.831 339.694 484.029 347.701 508.518 346.32C569.399 342.904 638.423 342.121 694.746 314.333C729.916 296.98 744.365 268.202 736.864 228.25C734.271 214.427 729.599 202.626 735.514 188.874C742.353 172.959 758.085 163.037 772.507 156.033C817.683 134.089 871.083 129.427 920.054 125.547C970.645 121.54 1023.36 118.714 1072.32 121.647C1091.9 122.814 1114.44 116.187 1133.82 111.105C1163.63 103.276 1193.14 94.2432 1222.81 85.8442C1283.11 68.7614 1344.97 52.3051 1407.69 50.4331C1452.97 49.0808 1500.19 56.4121 1537.87 84.748C1576.05 113.483 1592.99 158.026 1614.16 200.37C1650.73 273.576 1700.12 362.585 1784.72 378.052C1797.55 380.4 1809.88 379.126 1822.69 379.703C1829.28 379.995 1836.78 380.92 1840.12 387.774C1848.8 405.569 1825.03 438.104 1817.03 451.735C1794.92 489.403 1770.07 525.226 1746.9 562.168C1728.5 591.5 1705.18 624.093 1698.07 658.863C1689.43 701.058 1745.85 731.081 1765.7 760.79C1800.1 812.309 1734.92 841.663 1702.79 866.226C1665.89 894.427 1635.44 945.875 1668.51 989.507C1681.17 1006.19 1696.74 1016.13 1702.39 1037.91C1711.22 1071.96 1704.54 1110.87 1697.37 1144.53C1686.57 1195.13 1669.47 1245.19 1646.23 1290.92C1629.58 1323.66 1601.96 1375 1561.51 1371.15C1534.28 1368.58 1506.6 1359.19 1480.08 1350.89C1440.38 1338.47 1401.18 1324.31 1362.19 1309.61C1272.18 1275.76 1183.17 1238.43 1095.9 1197.38C1036.35 1169.35 870.26 1054.83 857.762 1050.75C820.499 1038.58 778.131 1040.72 739.713 1042.61C688.609 1045.11 637.761 1051.6 586.953 1057.62C562.769 1060.46 538.462 1063.94 514.149 1065.35C496.844 1066.34 474.117 1067.2 458.959 1056.58C429.373 1035.88 462.335 988.503 475.967 968.459C517.727 907.011 570.553 853.799 620.085 799.39C644.391 772.677 669.069 746.007 691.134 717.151C700.033 705.499 722.341 682.103 712.584 666.145Z" stroke="white"/>
<path fill-rule="evenodd" clip-rule="evenodd" d="M734.423 652.894C691.313 601.19 631.811 562.736 580.458 519.554C554.683 497.875 528.746 475.604 506.516 449.78C494.952 436.352 480.512 419.372 478.284 400.654C472.33 350.58 561.737 357.351 588.498 355.45C640.236 351.762 698.684 348.964 745.623 323.411C774.3 307.79 788.423 282.152 783.063 248.454C780.687 233.502 776.987 220.8 783.063 206.119C789.22 191.246 802.046 180.752 815.035 172.884C852.36 150.257 898.745 143.024 940.769 137.634C990.067 131.356 1039.74 128.905 1089.37 130.301C1132.85 131.504 1176.12 117.969 1218.57 109.048C1274.8 97.2362 1332.05 86.9196 1389.6 88.4789C1435.04 89.7177 1480.85 99.4504 1519.7 125.317C1559.18 151.66 1582.91 191.089 1604.31 233.637C1636.66 297.958 1676.98 384.15 1747.95 408.578C1758.27 412.138 1767.89 412.53 1778.54 413.149C1783.71 413.448 1790.39 413.541 1792.95 419.229C1799.12 432.928 1776.31 459.485 1769.94 468.74C1749.62 498.288 1727.6 526.503 1706.77 555.659C1687.33 582.878 1666.15 611.243 1654.07 643.14C1634.85 693.94 1696.3 723.643 1694.58 772.051C1693.51 802.104 1666.23 823.655 1644.62 838.564C1618.02 856.898 1579.73 868.951 1566.41 902.407C1556.5 927.327 1572.06 941.83 1584.04 960.74C1604.35 992.779 1605.73 1036.21 1603.62 1073.3C1600.77 1123.41 1589.64 1174.27 1570.69 1220.33C1562.1 1241.22 1551.58 1262.94 1536.1 1279.16C1521.59 1294.36 1507.86 1298.25 1488.47 1295.14C1429.12 1285.6 1369.19 1259.01 1312.27 1235.26C1240.76 1205.41 1170.24 1172.46 1101.82 1135.39C1055.16 1110.11 1007.45 1083.36 966.503 1048.43C955.83 1039.32 944.9 1029.42 937.096 1017.41C931.196 1008.39 928.692 1000.93 918.748 995.776C889.274 980.504 848.276 984.499 816.696 986.086C766.199 988.614 715.946 995.342 665.761 1001.4C636.476 1004.96 581.308 1016.16 557.923 989.297C537.738 966.101 562.095 926.551 574.537 906.117C606.009 854.441 646.494 809.088 684.056 762.389C701.27 740.987 719.16 719.421 733.377 695.627C737.009 689.561 742.828 681.523 743.827 674.154C744.948 665.71 739.716 659.266 734.423 652.894Z" stroke="white"/>
<path fill-rule="evenodd" clip-rule="evenodd" d="M738.13 664.93C698.294 619.215 650.302 581.657 607.536 538.877C588.36 519.696 568.996 499.574 554.385 476.174C546.526 463.591 538.181 447.752 540.348 432.112C546.567 387.222 620.101 391.277 649.809 388.648C693.952 384.786 744.665 380.895 783.698 356.691C809.267 340.837 818.854 317.423 814.081 287.226C808.956 254.835 820.414 231.321 846.49 213.252C879.182 190.615 920.449 181.387 958.408 174.832C1004.14 166.972 1050.45 163.488 1096.78 164.422C1141.83 165.334 1185.49 157.368 1230.24 152.188C1289.59 145.326 1350.83 141.942 1409.5 156.007C1460.59 168.255 1506.73 195.246 1541.32 236.986C1577.45 280.55 1595.33 335.436 1624.67 383.631C1642.97 413.693 1668.48 453.459 1702.68 465.145C1714.08 469.042 1734.86 463.784 1725.75 482.958C1720.55 493.924 1710.8 503.543 1703.11 512.506C1690.67 526.992 1677.82 541.079 1665.18 555.365C1638.22 585.818 1609.36 616.92 1589.16 652.981C1563.7 698.384 1601.54 733.326 1596.93 779.362C1594.45 804.137 1578.12 823.91 1560.85 839.443C1549.68 849.504 1537.45 858.218 1524.97 866.348C1511.93 874.841 1496.5 881.311 1485.13 892.291C1468.93 907.917 1475.96 926.414 1479 946.614C1484.35 982.114 1485.52 1018.17 1482.5 1053.98C1478.8 1097.86 1470.12 1143 1451.85 1182.88C1444.74 1198.41 1435.73 1214.87 1422.35 1225.28C1408.98 1235.69 1395.14 1234.97 1379.82 1231.84C1334.36 1222.58 1288.99 1201.02 1245.87 1180.59C1191.89 1155.02 1138.98 1126.44 1088.45 1093.93C1053.57 1071.48 1018.57 1047.24 989.392 1016.81C980.905 1007.95 972.83 998.465 966.301 987.877C961.818 980.616 959.414 971.246 952.919 965.788C932.596 948.752 891.794 953.839 867.96 954.83C820.394 956.803 773.577 966.187 726.071 968.468C700.144 969.714 659.538 972.85 640.498 949.557C622.592 927.661 638.81 893.175 649.512 872.077C670.544 830.593 698.8 793.634 724.126 755.072C734.538 739.204 745.948 722.602 752.693 704.483C758.689 688.337 748.338 676.652 738.13 664.93Z" stroke="white"/>
<path fill-rule="evenodd" clip-rule="evenodd" d="M747.927 665.678C716.219 625.45 677.994 589.739 646.057 548.856C627.363 524.914 595.169 484.664 609.626 450.91C625.487 413.819 680.774 412.809 712.732 409.82C750.768 406.263 795.435 401.403 827.987 378.244C838.282 370.922 847.052 361.231 850.769 348.467C854.75 334.806 850.398 322.853 849.832 309.178C848.644 280.49 864.876 257.458 886.357 241.641C916.715 219.279 954.677 208.706 990.534 201.334C1031.16 193.02 1072.46 188.922 1113.84 189.096C1153.39 189.239 1192.51 188.314 1232.1 187.247C1283.87 185.824 1336.37 188.122 1386.59 202.629C1436.07 216.931 1481.04 243.733 1516.37 283.158C1550.84 321.629 1574.1 368.652 1594.46 416.551C1606.02 443.738 1625.54 484.365 1653.11 498.097C1665.37 504.209 1677.4 503.789 1664.36 519.684C1647.95 539.699 1625.83 555.757 1606.82 572.876C1579.39 597.58 1551.28 622.767 1528.26 652.138C1513.56 670.893 1507.01 689.094 1508.02 713.378C1508.81 731.877 1512.35 750.184 1510.56 768.754C1506.36 812.341 1473.82 842.232 1445.05 870.066C1426.55 887.967 1409.65 901.621 1400.12 927.086C1388.85 957.183 1384.13 989.926 1376.6 1021.18C1368.33 1055.49 1358.77 1091.19 1340.72 1121.41C1324.65 1148.32 1305.1 1160.39 1275.85 1153.14C1230.23 1141.84 1185.26 1114.01 1144.75 1088.26C1103.52 1062.06 1063 1032.6 1028.84 996.593C1010.4 977.147 997.807 954.315 981.427 933.425C960.823 907.199 914.212 917.132 886.512 919.352C840.528 923.037 695.839 950.615 709.19 861.293C714.762 824.01 736.708 789.601 752.758 756.701C759.41 743.047 769.037 726.661 770.541 711.015C772.181 693.975 757.46 677.788 747.927 665.678Z" stroke="white"/>
<path fill-rule="evenodd" clip-rule="evenodd" d="M764.669 669.094C740.438 632.639 711.44 598.198 690.648 558.824C677.161 533.325 663.916 499.254 681.315 472.274C700.953 441.827 744.255 434.73 776.073 430.85C808.854 426.856 847.989 423.496 874.782 400.41C883.306 393.056 890.333 383.14 891.642 371.266C892.903 359.876 889.342 348.486 890.522 336.889C893.166 310.849 908.13 289.393 927.424 273.831C984.498 227.794 1069.44 217.557 1138.3 216.354C1172.77 215.756 1208.24 218.895 1242.93 221.145C1287.95 224.064 1333.03 230.328 1375.96 245.427C1467.24 277.518 1528.42 348.692 1571.15 437.257C1584.6 465.134 1594.89 495.296 1615.96 517.699C1626.83 529.267 1624.45 537.575 1613.35 548.125C1595.98 564.612 1574.8 577.212 1555.53 590.973C1528.11 610.542 1500.11 630.404 1475.87 653.846C1459.16 670.005 1447.29 685.574 1443.69 709.806C1441.12 727.084 1441.72 744.688 1440.18 762.072C1437.24 795.097 1427.17 827.871 1409.35 855.264C1395.18 876.977 1378.32 896.71 1360.9 915.525C1338.25 940.021 1319.09 964.908 1301.88 993.981C1279.08 1032.47 1247.03 1103.45 1193.31 1084.67C1134.06 1063.94 1078.52 1011.27 1040.51 960.231C1027.74 943.096 1017.26 922.081 1000.04 909.445C974.267 890.559 948.115 891.221 917.457 891.3C871.558 891.407 771.682 901.921 770.603 829.366C770.178 800.621 781.967 773.441 787.611 745.792C793.977 714.825 781.218 693.939 764.669 669.094Z" stroke="white"/>
<path fill-rule="evenodd" clip-rule="evenodd" d="M782.716 672.344C758.749 624.831 705.004 546.757 745.881 493.923C767.473 466.001 805.665 455.509 837.702 449.256C863.484 444.198 894.577 442.298 914.057 420.857C928.376 405.093 922.02 382.151 927.505 362.417C934.314 337.953 949.941 317.935 969.145 302.889C1022.81 260.839 1097.42 247.935 1161.98 245.189C1229.02 242.344 1302.89 255.653 1365.98 281.256C1444.65 313.19 1503.58 373.657 1544.79 450.23C1552.4 464.365 1559.31 478.87 1566.61 493.176C1571.51 502.773 1578.79 512.056 1582.65 522.151C1589.09 538.982 1581.51 552.74 1569.35 563.71C1551.86 579.502 1530.37 590.742 1510.43 602.594C1483.17 618.813 1455.29 634.741 1429.93 653.77C1412.88 666.575 1395.04 680.369 1388.94 702.585C1384.78 717.738 1383.92 733.786 1384.07 749.479C1384.39 783.128 1382.72 810.338 1367.83 841.155C1343.34 891.748 1305.67 937.241 1265.88 975.094C1234.65 1004.8 1185.24 1050.95 1139.74 1031.09C1098.92 1013.3 1075.04 970.733 1048.15 936.316C1035.07 919.585 1020.38 904.304 1003.12 892.403C981.358 877.4 960.872 871.104 935.09 868.65C891.696 864.517 826.265 863.442 812.851 808.524C807.898 788.257 810.725 767.264 808.127 746.733C804.733 719.587 794.808 696.311 782.716 672.344Z" stroke="white"/>
<path fill-rule="evenodd" clip-rule="evenodd" d="M807.638 674.104C790.571 622.115 768.15 556.596 809.371 510.39C829.338 488.006 857.423 475.493 884.604 466.143C904.072 459.441 934.983 457.468 946.918 436.865C955.684 421.703 956.898 400.787 964.828 384.542C975.725 362.208 992.232 343.813 1011.6 329.413C1062.05 291.889 1127.76 277.389 1187.69 273.237C1317.9 264.228 1450.39 335.979 1520.07 454.029C1540.84 489.217 1567.66 526.67 1534.09 562.62C1497.43 601.84 1442.21 620.214 1398.46 648.081C1381.74 658.721 1360.44 671.511 1351.12 690.776C1345.51 702.356 1345.12 716.884 1344.87 729.632C1344.19 762.1 1341.64 791.299 1329.26 821.594C1310.15 868.413 1279.68 911.606 1245.15 946.986C1215.03 977.838 1172.09 1014.09 1128.35 991.853C1094.82 974.761 1073.55 938.483 1047.49 911.741C1018.5 881.958 982.637 861.889 943.257 852.082C904.949 842.568 862.932 836.151 842.743 795.728C835.818 781.862 828.582 763.909 825.986 748.561C821.795 723.257 815.659 698.355 807.638 674.104Z" stroke="white"/>
<path fill-rule="evenodd" clip-rule="evenodd" d="M835.426 674.47C827.531 621.973 826.653 567.233 863.338 525.857C880.459 506.554 902.101 492.841 923.986 480.416C940.088 471.274 956.716 463.563 968.741 448.574C979.883 434.697 988.352 418.584 999.109 404.344C1013.3 385.472 1030.28 369.136 1049.39 355.962C1097.31 323.003 1155.59 307.587 1211.35 302.24C1238.35 299.641 1267.63 298.288 1294.44 305.373C1320.33 312.208 1345.94 323.017 1369.75 335.62C1420.36 362.384 1464.22 401.581 1496.02 451.138C1517.83 485.13 1529.62 518.182 1501.38 552.665C1469.55 591.534 1419.64 612.98 1378.5 638.207C1350.28 655.509 1318.66 672.47 1313.39 709.238C1309.19 738.495 1305.78 766.264 1294.93 793.919C1278.77 834.71 1255.01 871.662 1225.05 902.58C1197.66 930.748 1163.01 954.651 1123.83 939.606C1092.78 927.665 1068.7 900.914 1041.58 881.789C1011.35 860.429 978.142 848.652 943.172 839.182C911.744 830.638 882.152 817.508 861.84 789.633C857.683 783.936 853.316 777.735 850.111 771.362C846.021 763.231 846.339 755.171 845.536 746.057C843.444 722.005 838.996 698.23 835.426 674.47Z" stroke="white"/>
<path fill-rule="evenodd" clip-rule="evenodd" d="M866.066 670.179C866.74 620.315 878.106 573.188 909.236 534.328C922.544 517.704 938.436 504.011 953.08 488.778C964.871 476.497 976.014 465.087 989.572 454.967C1021.73 431.004 1047.87 399.996 1082.05 378.658C1127.67 350.131 1179.94 334.363 1231.79 328.059C1257.12 324.978 1283.27 323.901 1308.89 327.381C1330.9 330.369 1351.97 340.86 1371.52 351.593C1409.83 372.617 1447.03 402.499 1471.91 440.304C1526.75 523.652 1418.62 584.25 1363.12 619.737C1337.59 636.061 1298.59 654.967 1288.14 687.302C1280.66 710.402 1276.11 733.894 1266.49 756.28C1240.63 816.4 1188.15 887.11 1118.2 877.697C1088.28 873.674 1061 857.336 1033.06 846.367C1004.29 835.071 974.597 828.773 944.696 821.863C916.75 815.409 894.477 806.223 876.427 781.597C867.799 769.837 868.562 755.759 867.793 741.332C866.538 717.633 865.762 693.799 866.066 670.179Z" stroke="white"/>
<path fill-rule="evenodd" clip-rule="evenodd" d="M893.966 663.792C905.202 588.526 946.934 506.357 1008.3 462.646C1080.48 411.228 1158.67 367.93 1244.91 355.483C1284.9 349.711 1328.7 346.872 1366.42 365.745C1395.14 380.099 1428.49 401.556 1444.29 431.731C1482.95 505.538 1396.96 564.294 1347.97 598.44C1321.59 616.822 1288.02 634.735 1268.14 661.579C1256.6 677.143 1250.71 697.732 1241.4 714.826C1213.18 766.629 1166.73 808.411 1108.87 815.883C1082.11 819.335 1055.16 815.065 1028.61 811.67C1001.43 808.197 973.912 806.311 946.9 801.465C925.339 797.593 899.928 791.039 891.987 766.693C881.973 736.013 889.38 694.529 893.966 663.792Z" stroke="white"/>
<path fill-rule="evenodd" clip-rule="evenodd" d="M921.324 651.701C937.712 580.938 972.414 511.913 1030.75 469.669C1061.69 447.269 1097.6 431.805 1132.08 416.528C1171.16 399.213 1212 385.772 1253.7 379.105C1305.63 370.801 1389.73 363.315 1416.86 425.744C1443.79 487.711 1375.75 542.555 1335.51 573.809C1309.71 593.83 1282.1 612.206 1257.45 634.094C1244.08 645.96 1233.79 659.671 1222.48 673.589C1191.22 712.151 1146.65 742.678 1101.22 758.975C1057.2 774.772 1002.74 781.767 956.263 776.546C936.211 774.302 921.879 766.731 915.814 745.207C907.411 715.285 914.55 680.932 921.324 651.701Z" stroke="white"/>
<path fill-rule="evenodd" clip-rule="evenodd" d="M948.51 632.642C964.79 570.338 999.904 513.432 1051.12 476.038C1108.54 434.119 1182.47 410.826 1250.42 398.981C1286.54 392.689 1364.81 375.631 1383.22 424.451C1401.63 473.272 1348.41 521.383 1317.78 547.868C1280.6 579.963 1240.52 610.952 1200.48 639.749C1165.7 664.787 1128.58 690.386 1090.9 709.721C1069.65 720.69 1047.52 729.646 1024.76 736.483C1007.91 741.504 986.476 748.994 968.807 745.256C924.241 735.816 940.724 662.433 948.51 632.642Z" stroke="white"/>
<path fill-rule="evenodd" clip-rule="evenodd" d="M982.067 613.985C1017.79 496.161 1130.96 438.213 1239.92 418.015C1265.25 413.326 1336.23 396.422 1350.38 432.415C1364.1 467.312 1320.48 508.697 1300.06 528.305C1236.78 589.063 1158.6 634.113 1084.52 678.742C1061.39 692.673 1019.69 722.902 991.003 708.958C959.86 693.79 974.667 638.417 982.067 613.985Z" stroke="white"/>
<path fill-rule="evenodd" clip-rule="evenodd" d="M1018.66 591.307C1049.72 504.538 1140.07 454.773 1223.14 438.367C1243.49 434.353 1295.16 421.855 1310.57 446.068C1324.83 468.467 1290.8 500.923 1278.07 513.82C1249.72 542.539 1216.13 566.197 1182.94 588.937C1152.26 609.976 1121.24 631.542 1088.95 649.336C1071.95 658.702 1040.05 678.688 1020.72 664.226C999.918 648.667 1011.76 610.574 1018.66 591.307Z" stroke="white"/>
<path fill-rule="evenodd" clip-rule="evenodd" d="M1058.97 565.957C1082.65 509.293 1146.06 472.498 1202 460.27C1217.05 456.988 1249.58 448.471 1262.28 463.603C1273.97 477.539 1255.13 497.97 1246.77 507.406C1209.71 549.229 1155.45 586.587 1105.72 609.531C1093.22 615.3 1070.75 626.622 1057.89 614.979C1044.7 603.023 1053.54 578.967 1058.97 565.957Z" stroke="white"/>
<path fill-rule="evenodd" clip-rule="evenodd" d="M1101.75 542.154C1115.09 514.017 1149.96 492.789 1178.84 486.032C1199.17 481.28 1223.6 485.384 1205.89 509.877C1188.29 534.182 1155.63 556.381 1127.96 566.222C1106.84 573.727 1090.29 566.323 1101.75 542.154Z" stroke="white"/>
<path fill-rule="evenodd" clip-rule="evenodd" d="M19.854 737.034C18.9983 681.446 -8.99646 623.674 4.8291 567.033C16.182 520.513 73.337 516.629 107.625 495.553C134.872 478.809 150.334 449.148 165.069 420.689C178.309 395.139 190.201 368.82 204.148 343.69C213.176 327.444 228.679 295.542 248.259 294.965C267.003 294.411 284.19 319.271 295.078 333.966C309.274 353.122 321.86 373.543 335.645 393.005C358.877 425.831 386.75 450.13 418.666 473.126C454.986 499.293 491.906 524.565 529.425 548.944C557.05 566.947 584.862 584.815 611.415 604.597C628.071 617.009 664.831 640.297 665 663.18C665.08 674.098 655.277 686.19 648.668 694.918C637.483 709.692 624.736 723.2 611.948 736.416C588.13 761.034 563.302 784.535 538.744 808.321C506.868 839.192 476.421 869.558 448.399 904.604C419.427 940.88 391.749 978.352 363.505 1015.31C344.377 1040.35 325.269 1068.47 297.679 1083.83C263.122 1103.04 234.757 1082.79 199.809 1082.55C169.745 1082.34 171.962 1008.82 168.142 988.381C164.308 967.689 155.859 948.427 152.585 927.686C148.502 901.794 148.448 875.305 147.444 849.136C146.224 817.127 145.739 786.655 113.325 774.449C94.8772 767.514 74.9204 766.056 55.826 761.902C43.4558 759.206 20.1235 754.597 19.854 737.034Z" stroke="white"/>
<path fill-rule="evenodd" clip-rule="evenodd" d="M34.6335 727.146C31.4823 680.549 12.8651 620.908 30.4702 572.808C45.511 531.704 92.55 526.375 124.224 504.783C150.372 486.973 162.012 457.83 175.082 429.199C185.569 406.232 195.738 383.044 207.641 360.811C216.413 344.426 229.807 316.764 248.047 313.373C264.444 310.324 282.029 334.745 291.233 347.169C304.661 365.306 316.145 385.003 328.008 404.287C348.852 438.161 370.195 468.622 400.702 493.506C431.344 518.496 464.867 537.182 498.748 556.63C525.253 571.847 551.624 587.505 576.807 605.072C595.566 618.151 622.537 634.892 631.12 658.216C637.915 676.666 603.454 707.284 593.292 718.091C572.373 740.31 550.207 761.169 528 781.899C500.928 807.16 472.992 829.251 449.084 858.067C406.323 909.586 370.58 973.744 315.558 1012.03C282.373 1035.13 245.442 1041.04 208.531 1037.58C193.916 1036.21 190.407 1014.43 188.565 1001.73C185.501 980.632 185.116 959.168 182.762 937.982C180.555 918.149 175.656 899.307 171.709 879.859C167.714 860.154 166.594 839.965 163.652 820.126C161.83 807.809 160.028 793.475 152.059 783.573C143.813 773.322 130.21 769.026 118.32 765.764C95.9914 759.694 36.8603 760.029 34.6335 727.146Z" stroke="white"/>
<path fill-rule="evenodd" clip-rule="evenodd" d="M53.6556 707.639C48.356 664.867 40.9364 611.593 62.5267 572.186C80.1743 539.965 117.812 533.014 144.695 512.019C167.055 494.56 175.501 466.792 186.6 440.988C195.707 419.822 204.862 398.564 215.9 378.423C224.271 363.148 235.06 342.437 251.681 337.109C265.892 332.555 281.947 352.953 289.825 363.105C303.24 380.408 314.177 399.795 325.039 418.925C342.809 450.229 359.16 483.667 384.45 509.13C409.024 533.839 438.216 548.424 467.955 564.823C490.734 577.387 513.37 590.435 534.832 605.418C551.312 616.915 571.734 630.539 580.322 649.67C587.748 666.169 568.683 685.698 559.157 697.338C543.427 716.547 525.968 734.169 508.753 751.863C490.173 770.951 469.596 788.56 451.617 808.118C413.811 849.275 383.606 894.843 337.009 926.375C306.832 946.801 266.223 965.355 230.55 962.019C204.896 959.614 206.583 899.696 204.119 880.55C200.068 849.247 192.244 816.356 179.815 787.521C169.141 762.812 143.777 755.193 120.445 749.651C105.829 746.172 90.5103 744.293 76.3734 738.915C60.0085 732.682 55.8768 725.568 53.6556 707.639Z" stroke="white"/>
<path fill-rule="evenodd" clip-rule="evenodd" d="M71.3991 687.591C68.2436 651.429 68.9531 608.667 89.3928 577.385C107.305 549.985 139.198 542.772 161.881 521.187C179.584 504.348 186.537 476.891 196.057 454.622C207.693 427.393 223.997 377.103 253.349 366.857C280.654 357.331 309.208 418.181 319.094 436.326C334.743 465.046 347.831 496.542 366.811 523.064C383.156 545.897 405.055 558.519 428.299 572.084C457.935 589.408 502.929 609.951 518.774 643.715C530.585 668.875 492.179 706.278 479.063 723.71C465.347 741.919 455.016 763.504 440.86 781.071C418.522 808.792 382.325 831.111 352.439 848.143C323.384 864.711 285.654 883.049 252.694 881.957C231.031 881.244 226.909 845.938 222.288 828.692C215.666 804.175 206.862 782.205 187.949 765.53C168.699 748.555 146.009 740.556 122.157 733.556C109.913 729.989 95.947 727.206 84.994 719.999C72.8924 712.158 72.6154 701.49 71.3991 687.591Z" stroke="white"/>
<path fill-rule="evenodd" clip-rule="evenodd" d="M93.0181 666.747C93.1932 635.506 99.9619 602.191 120.032 578.093C136.748 558.02 162.914 551.311 178.916 530.791C191.592 514.545 198.044 491.739 206.53 472.874C216.908 449.755 231.584 409.369 257.392 401.345C282.581 393.535 304.861 438.018 314.519 455.62C328.662 481.43 340.112 508.787 354.383 534.525C365.563 554.719 379.235 567.733 397.44 580.748C418.81 596.035 448.626 612.969 460.042 638.261C468.272 656.572 448.35 685.832 441.117 701.964C436.267 712.799 431.829 723.805 429.391 735.549C427.492 744.694 427.303 753.157 421.801 761.01C407.947 780.763 377.572 783.341 356.963 789.852C329.592 798.493 300.55 808.312 271.906 810.187C254.301 811.358 245.317 794.24 235.268 782.198C223.394 767.961 206.584 757.723 191.901 746.98C172.525 732.78 151.437 723.947 129.623 714.901C119.783 710.818 108.226 706.814 100.602 698.698C92.641 690.284 92.9575 678.022 93.0181 666.747Z" stroke="white"/>
<path fill-rule="evenodd" clip-rule="evenodd" d="M115.724 648.2C119.203 621.962 130.044 596.884 148.355 578.336C162.392 564.095 181.033 556.078 192.299 538.967C202.796 523.018 210.111 504.882 218.781 487.829C227.956 469.801 241.588 439.667 262.751 434.761C285.559 429.478 303.128 459.875 312.857 476.722C325.147 498.011 334.485 520.917 345.474 542.941C353.753 559.355 364.313 574.368 376.803 587.478C389.903 601.299 407.668 614.535 414.295 633.54C420.153 650.372 409.191 670.736 407.256 687.804C405.187 706.039 408.814 725.193 397.339 740.85C373.675 773.141 314.286 767.153 280.334 767.843C246.834 768.555 219.9 748.796 192.791 729.999C174.884 717.588 156.236 707.078 137.878 695.515C119.163 683.717 112.664 671.292 115.724 648.2Z" stroke="white"/>
<path fill-rule="evenodd" clip-rule="evenodd" d="M136.821 633.182C147.108 595.171 179.239 574.967 202.209 546.241C221.004 522.724 235.096 474.023 266.748 467.581C302.683 460.269 324.196 524.798 336.69 549.697C350.553 577.312 375.243 599.774 385.51 629.006C390.907 644.349 386.272 658.666 383.399 674.002C380.248 690.842 377.881 708.059 367.006 721.613C345.601 748.287 303.797 748.102 273.689 748.836C242.523 749.598 214.952 731.319 190.121 713.076C163.784 693.756 126.284 672.164 136.821 633.182Z" stroke="white"/>
<path fill-rule="evenodd" clip-rule="evenodd" d="M154.051 622.875C165.644 595.793 190.003 573.775 209.77 552.991C226.268 535.663 244.016 500.781 269.171 498.295C298.736 495.362 316.654 532.61 328.287 555.449C339.737 577.891 356.235 601.587 362.575 626.219C369.186 651.877 351.58 686.433 334.79 704.59C316.063 724.836 285.425 732.316 259.135 731.509C231.609 730.687 206.352 713.955 185.505 696.599C163.218 678.046 140.57 654.314 154.051 622.875Z" stroke="white"/>
<path fill-rule="evenodd" clip-rule="evenodd" d="M170.04 617.776C181.113 595.251 200.307 576.196 218.004 559.199C231.662 546.077 251.815 523.765 271.519 523.218C293.196 522.615 311.567 541.344 320.184 560.541C328.679 579.475 337.63 603.214 338.902 623.986C341.664 669.221 285.442 719.892 243.225 715.769C203.197 711.859 147.962 662.656 170.04 617.776Z" stroke="white"/>
<path fill-rule="evenodd" clip-rule="evenodd" d="M184.826 615.293C200.102 585.944 237.207 544.104 271.558 543.11C310.988 541.974 320.887 588.535 315.747 622.277C310.526 656.714 265.066 706.561 228.818 699.825C193.439 693.253 166.722 650.099 184.826 615.293Z" stroke="white"/>
<path fill-rule="evenodd" clip-rule="evenodd" d="M200.438 610.547C213.371 585.974 240.97 555.281 269.756 554.352C304.054 553.253 303.407 592.562 295.629 617.029C287.542 642.432 251.922 685.82 221.89 678.969C192.687 672.281 188.044 634.099 200.438 610.547Z" stroke="white"/>
<path fill-rule="evenodd" clip-rule="evenodd" d="M214.036 607.719C222.573 590.185 243.939 568.024 264.25 567.315C289.077 566.463 284.251 597.641 277.837 612.69C270.212 630.597 244.655 661.711 223.208 656.668C202.092 651.705 206.992 622.166 214.036 607.719Z" stroke="white"/>
<path fill-rule="evenodd" clip-rule="evenodd" d="M1381.93 1609.55C1326.98 1644.73 1264.86 1673.77 1206.28 1703.28C1120.67 1746.41 1033.8 1788.38 943.848 1820.51C895.621 1837.72 833.128 1862.55 781.381 1849.06C762.461 1844.13 745.207 1829.21 728.243 1819.52C704.852 1806.16 681.116 1793.46 657.421 1780.73C609.888 1755.21 562.208 1729.95 515.492 1702.8C492.997 1689.72 471.17 1673.25 447.751 1662.09C434.066 1655.57 417.689 1658.62 403.065 1659.03C369.192 1659.99 335.339 1661.81 301.485 1663.37C260.078 1665.26 218.575 1667.27 177.12 1666.53C158.423 1666.18 112.631 1669.68 102.338 1652.69C96.8007 1643.54 109.852 1627.04 115.903 1619.41C127.012 1605.37 139.78 1592.73 152.38 1580.21C181.518 1551.27 212.464 1523.7 238.365 1491.37C251.673 1474.75 269.109 1454.44 260.422 1431.75C251.653 1408.83 236.463 1388.98 227.196 1366.14C216.525 1339.86 212.1 1312.51 207.062 1284.64C203.332 1264.04 194.644 1245.78 186.476 1226.79C177.451 1205.8 168.102 1184.63 161.836 1162.5C157.695 1147.88 151.01 1121.57 165.499 1112.31C186.085 1099.15 224.686 1109.81 248.152 1113.68C280.582 1119.04 312.776 1125.85 345.119 1131.72C368.598 1135.99 392.159 1140.67 416.029 1141.17C454.51 1141.98 493.118 1139.19 531.498 1136.6C602.563 1131.81 673.119 1125.3 744.425 1125.3C806.896 1125.3 951.261 1201.56 985.054 1214.99C1052.5 1241.79 1121.75 1267.2 1185.58 1302.87C1202.84 1312.52 1229.42 1325.39 1238.5 1345.26C1244.11 1357.51 1241.53 1364.59 1254.75 1372.48C1272.79 1383.24 1295.9 1387.47 1315.86 1392.29C1348.02 1400.04 1380.42 1406.61 1412.72 1413.63C1478.05 1427.8 1542.94 1443.82 1608 1459.24C1627.67 1463.9 1651.47 1464.94 1670.22 1473.15C1682.31 1478.42 1681.05 1485.06 1671.7 1493.07C1655.29 1507.13 1632.29 1514.94 1612.9 1522.96C1584.5 1534.7 1555.63 1545.18 1526.75 1555.52C1497.86 1565.85 1468.83 1575.86 1439.94 1586.21C1420.85 1593.03 1399.08 1598.57 1381.93 1609.55Z" stroke="white"/>
<path fill-rule="evenodd" clip-rule="evenodd" d="M1336.71 1601.81C1278.58 1637.06 1214.06 1665.15 1151.86 1692.54C1072.25 1727.63 990.839 1760.52 906.96 1782.45C857.711 1795.32 799.603 1809.53 749.281 1794.77C731.329 1789.5 717.917 1777.67 702.528 1767.22C684.987 1755.3 666.772 1744.38 648.556 1733.62C611.059 1711.49 573.167 1690.11 534.878 1669.49C514.598 1658.53 492.274 1643.84 469.363 1640.04C451.148 1637.01 430.456 1641.39 412.16 1642.66C379.21 1644.96 346.267 1647.32 313.304 1649.33C275.267 1651.65 237.122 1653.79 199.005 1653.42C177.76 1653.21 141.289 1656.62 126.264 1642.14C113.156 1629.5 160.88 1583.78 169.273 1575.09C195.483 1547.97 223.049 1522.15 247.444 1493.15C261.862 1476.04 279.416 1455.24 285.495 1432.58C290.669 1413.26 280.684 1391.25 274.788 1373.39C267.414 1351.02 261.464 1327.84 252.896 1305.94C245.265 1286.43 233.122 1269.05 222.455 1251.31C210.723 1231.8 198.843 1211.97 190.133 1190.69C184.797 1177.59 175.965 1155.66 186.571 1143.17C198.823 1128.78 236.589 1138.19 252.113 1140.24C283.606 1144.46 314.855 1150.73 346.132 1156.34C398.08 1165.66 447.606 1173.82 500.505 1171.86C569.393 1169.31 638.214 1163.31 707.089 1159.99C732.523 1158.75 758.362 1156.26 783.817 1157.6C798.409 1158.38 809.521 1163.08 818.008 1173.69C829.598 1188.17 856.294 1196.19 874.86 1204.5C903.809 1217.45 933.123 1229.49 962.355 1241.69C1026.53 1268.48 1091.93 1294.3 1152.79 1328.96C1172.05 1339.92 1194.1 1352.14 1208.34 1370.24C1216.29 1380.34 1214.28 1390.07 1219.13 1400.8C1225.56 1414.91 1246.67 1421.28 1259.29 1425.9C1283.66 1434.82 1309.02 1440.8 1334.18 1446.4C1391.12 1459.07 1448.2 1467.4 1506.06 1473.54C1519.62 1474.96 1573.02 1479.9 1544.97 1503.7C1513.99 1530 1469.25 1542.89 1432.77 1557.71C1399.91 1571.04 1367.02 1583.44 1336.71 1601.81Z" stroke="white"/>
<path fill-rule="evenodd" clip-rule="evenodd" d="M1256.38 1595.29C1201.74 1626.31 1141.21 1649.44 1082.37 1671.58C1010.96 1698.43 937.765 1722.37 862.872 1735.78C815.826 1744.2 763.957 1750.67 717.228 1736.68C685.317 1727.13 660.632 1701.32 632.604 1683.56C604.576 1665.81 575.413 1649.14 545.379 1635.24C526.739 1626.62 506.687 1617.93 485.946 1619.07C435.516 1621.83 385.147 1628.41 334.662 1631.61C301.265 1633.74 267.8 1635.5 234.302 1634.97C214.101 1634.66 186.35 1635.94 168.466 1624.73C148.698 1612.33 253.955 1506.45 263.903 1494.53C288.845 1464.65 319.048 1424.99 314.226 1382.5C309.613 1341.87 289.622 1311.55 267.01 1279.72C254.178 1261.61 213.028 1213.24 228.277 1189.69C236.99 1176.23 265.707 1180.89 279.349 1181.81C306.236 1183.61 332.974 1187.5 359.719 1190.87C398.715 1195.76 438.785 1203.31 477.95 1205.52C505.221 1207.05 532.655 1205 559.974 1204.96C599.146 1204.9 638.317 1205.21 677.489 1205.58C710.38 1205.9 743.547 1205.58 776.323 1208.91C796.699 1210.96 812.165 1215.56 826.781 1228.57C839.498 1239.88 858.685 1246.5 874.894 1253.7C901.666 1265.57 928.789 1276.58 955.824 1287.76C1012.43 1311.18 1069.68 1334.11 1123.86 1363.38C1148.59 1376.74 1190.17 1395.43 1195.97 1427.81C1198.07 1439.49 1199.61 1444.53 1210.41 1451.17C1225.75 1460.59 1244.12 1464.84 1261.33 1468.53C1301.45 1477.14 1342.73 1475.85 1382.78 1484.36C1399.09 1487.86 1420.38 1495.43 1401.76 1512.77C1380.03 1533.03 1348.41 1544.18 1322.38 1556.7C1309.38 1562.94 1296 1568.79 1283.66 1576.42C1274.18 1582.3 1266.07 1589.83 1256.38 1595.29Z" stroke="white"/>
<path fill-rule="evenodd" clip-rule="evenodd" d="M1152.89 1585.61C1102.42 1610.8 1047.59 1629.11 993.757 1645.62C933.96 1663.94 872.719 1679.11 810.669 1685.56C767.824 1690.03 722.173 1691.35 680.589 1677.67C654.291 1669.01 636.462 1650.8 613.832 1635.53C579.679 1612.45 542.727 1594.17 501.695 1598.62C455.694 1603.6 409.542 1607.33 363.239 1609.82C335.31 1611.33 307.272 1612.45 279.308 1611.41C261.628 1610.75 238.85 1609.64 223.469 1601.19C202.889 1589.88 280.192 1503.76 289.828 1491.2C313.725 1460.08 331.244 1427.41 341.479 1388.85C349.827 1357.37 332.774 1332.64 315.182 1309.09C304.244 1294.47 268.904 1257.7 279.969 1238.72C286.038 1228.25 306.038 1228.79 316.78 1228.26C337.252 1227.25 357.811 1228.3 378.283 1228.77C408.512 1229.48 440.69 1224.58 470.663 1228.52C537.089 1237.25 603.347 1244.81 670.184 1250.79C707.028 1254.09 744.095 1257.08 780.609 1263.44C793.717 1265.72 807.257 1268.14 819.678 1273.3C827.669 1276.62 832.025 1282.27 838.768 1286.9C870.919 1308.97 912.888 1320.32 949.098 1334.46C997.237 1353.26 1045.63 1371.77 1092.49 1393.97C1117.14 1405.66 1151.56 1419.08 1168.52 1442.92C1173.64 1450.12 1171.46 1455.88 1174.68 1462.81C1178.39 1470.79 1189.66 1473.18 1196.93 1475.4C1213.45 1480.46 1282.57 1488.1 1250.72 1517.76C1235.52 1531.89 1216.15 1540.95 1199.02 1552.06C1192.81 1556.08 1186.76 1560.12 1181.59 1565.55C1172.94 1574.65 1164.42 1579.84 1152.89 1585.61Z" stroke="white"/>
<path fill-rule="evenodd" clip-rule="evenodd" d="M1042.63 1574.71C942.979 1615.46 826.192 1643.22 717.547 1637.84C681.417 1636.05 642.544 1630.06 611.226 1609.55C592.759 1597.44 578.002 1583.77 555.819 1579.39C539.805 1576.24 522.561 1579.82 506.453 1581.12C483.121 1583 459.776 1584.68 436.41 1586.04C407.443 1587.7 378.381 1588.98 349.36 1588.3C328.623 1587.81 299.987 1588.36 281.973 1576.61C260.466 1562.59 315.211 1496.81 322.914 1485.1C341.583 1456.69 354.671 1429.17 359.401 1394.94C360.793 1384.96 365.483 1374.74 364.874 1364.69C364.239 1354.42 358.246 1345.28 352.712 1337.21C345.475 1326.63 320.366 1301.53 327.556 1288.63C331.529 1281.51 346.441 1280.61 354.171 1279.1C368.672 1276.25 383.382 1274.72 397.97 1272.45C422.721 1268.59 447.296 1256.02 472.134 1256.37C538.927 1257.31 606.685 1279.17 672.14 1291.18C711.053 1298.34 750.23 1304.83 788.67 1314.53C800.833 1317.6 813.36 1320.78 824.921 1325.99C832.989 1329.62 838.172 1336.1 845.645 1340.16C874.301 1355.79 907.255 1365.27 938.026 1375.79C977.973 1389.46 1018.06 1402.73 1057.73 1417.29C1082.59 1426.42 1114.56 1434.45 1135.99 1451.38C1151.64 1463.74 1140.94 1467.43 1132.69 1478.95C1128.47 1484.82 1129.44 1490.6 1127.61 1497.25C1125 1506.74 1117.61 1513.57 1110.67 1519.71C1101.11 1528.2 1088.37 1535.19 1080.56 1545.59C1077.8 1549.25 1077.93 1553.8 1075.7 1556.99C1069.21 1566.28 1052 1570.87 1042.63 1574.71Z" stroke="white"/>
<path fill-rule="evenodd" clip-rule="evenodd" d="M936.68 1560.19C855.802 1585.81 765.811 1600.4 680.319 1593.63C650.574 1591.27 620.647 1585.79 592.939 1573.75C580.332 1568.29 570.869 1562.2 557.056 1561.88C525.004 1561.12 492.851 1563.77 460.806 1564.4C437.873 1564.86 414.826 1565.02 391.947 1563.07C376.649 1561.78 355.963 1560.22 343.431 1550.32C325.219 1535.91 358.094 1486.9 364.785 1473.35C375.874 1450.9 386.875 1425.93 382.477 1399.95C381.128 1392 378.74 1384.98 378.43 1376.88C378.133 1369.92 378.963 1363.49 376.622 1356.83C373.729 1348.58 360.86 1335.77 365.284 1328.17C368.299 1322.99 377.243 1322.74 383.192 1321.08C392.841 1318.39 402.262 1314.86 411.359 1310.52C420.936 1305.93 429.091 1298.84 439.013 1295.05C455.12 1288.9 473.149 1288.33 490.079 1288.35C557.629 1288.47 626.036 1302.53 691.873 1317.23C726.158 1324.89 760.631 1333.05 793.951 1344.66C804.068 1348.19 815.535 1351.73 824.431 1358.24C829.982 1362.3 833.746 1367.38 840.052 1370.43C893.924 1396.47 956.207 1406.14 1013.4 1424.95C1028.28 1429.84 1110.78 1454.58 1067.65 1477.85C1041.44 1491.99 1013.75 1498.42 989.844 1517.76C982.559 1523.64 977.703 1528.51 974.856 1537.48C972.981 1543.45 977.494 1540.42 971.194 1546.67C963.552 1554.17 946.103 1557.2 936.68 1560.19Z" stroke="white"/>
<path fill-rule="evenodd" clip-rule="evenodd" d="M852.585 1545.04C757.895 1565.95 657.618 1566.94 561.433 1548.41C537.186 1543.74 511.951 1544.85 487.406 1543.67C463.557 1542.53 421.156 1544.9 403.835 1525.55C391.275 1511.52 404.903 1481.71 409.618 1466.02C415.624 1446.03 420.872 1425.38 411.011 1405.97C405.235 1394.6 397.321 1383.78 391.126 1372.51C388.163 1367.13 382.063 1358.89 384.606 1353.8C388.813 1345.39 408.495 1341.85 418.045 1337.89C448.569 1325.22 480.892 1321.98 513.527 1322.07C573.804 1322.24 634.392 1330.94 693.519 1342.73C720.722 1348.16 748.304 1353.95 774.54 1363.39C789.386 1368.73 800.336 1379.02 814.513 1385.13C860.16 1404.8 909.203 1415.3 955.635 1433.29C969.074 1438.5 1019.27 1455.84 993.985 1476.28C969.501 1496.07 933.789 1493.72 908.331 1512.34C905.449 1514.47 901.885 1517.02 900.214 1520.47C899.227 1522.53 900.965 1526.45 900.214 1527.62C892.396 1540.36 864.604 1542.39 852.585 1545.04Z" stroke="white"/>
<path fill-rule="evenodd" clip-rule="evenodd" d="M791.237 1531.22C742.658 1538.25 693.011 1539.99 643.614 1540.43C616.614 1540.68 586.948 1542.49 560.529 1535.27C544.3 1530.83 528.626 1526.94 511.896 1524.14C493.896 1521.13 464.914 1518.93 453.952 1502.59C445.763 1490.38 451.376 1465.29 451.673 1450.44C451.991 1434.16 448.827 1422.08 437.933 1410.43C431.083 1403.09 399.66 1376.46 403.291 1368.78C406.746 1361.46 428.642 1360.34 438.109 1358.44C468.031 1352.41 498.352 1350.31 528.788 1350.64C575.926 1351.14 623.24 1356.21 669.642 1364.93C688.826 1368.55 708.652 1372.3 726.977 1379.54C739.318 1384.42 749.61 1393.07 761.869 1398.11C796.978 1412.58 834.101 1422.4 869.332 1437.14C880.638 1441.87 917.478 1454.48 908.646 1473.92C901.282 1490.14 876.236 1495.08 863.929 1505.95C842.994 1524.5 817.933 1527.36 791.237 1531.22Z" stroke="white"/>
<path fill-rule="evenodd" clip-rule="evenodd" d="M760.634 1521.89C722.098 1526.55 682.667 1528.58 643.565 1528.68C618.331 1528.74 591.708 1529.11 566.945 1523.12C554.506 1520.12 543.697 1513.1 531.925 1508.09C519.803 1502.93 503.074 1497.18 497.834 1485.37C492.911 1474.27 494.75 1458.07 490.426 1444.68C486.581 1432.81 478.533 1425.47 469.865 1417.44C464.343 1412.31 435.983 1390.1 439.263 1385.2C442.779 1379.94 459.811 1380.37 468.673 1379.65C493.092 1377.61 517.596 1376.96 542.081 1377.7C575.498 1378.78 609.171 1381.8 642.01 1388.63C665.305 1393.47 682.875 1405 704.595 1413.46C732.732 1424.44 761.879 1433.12 789.747 1445.13C803.634 1451.12 824.188 1458.82 831.3 1474.27C834.034 1480.19 836.688 1495.25 833.644 1501.17C829.987 1508.28 816.376 1511.3 809.951 1513.13C793.856 1517.69 777.012 1519.91 760.634 1521.89Z" stroke="white"/>
</g>
</svg>
